<svg width="48" height="48" viewBox="0 0 48 48" fill="none" xmlns="http://www.w3.org/2000/svg">
<g clip-path="url(#clip0_20005153_1522)" filter="url(#filter0_d_20005153_1522)">
<path d="M42.4374 34.1364C43.3004 34.1364 43.9999 33.4369 43.9999 32.5742C43.9999 31.7111 43.3004 31.0117 42.4374 31.0117H38.1411V26.7154C38.1411 25.8527 37.4417 25.1532 36.5789 25.1532C35.7159 25.1532 35.0164 25.8527 35.0164 26.7154V31.0117H30.7202C29.8574 31.0117 29.158 31.7111 29.158 32.5742C29.158 33.4369 29.8574 34.1364 30.7202 34.1364H35.0164V38.4326C35.0164 39.2957 35.7159 39.9951 36.5789 39.9951C37.4417 39.9951 38.1411 39.2957 38.1411 38.4326V34.1364H42.4374Z" fill="#D946EF"/>
<path d="M27.1612 26.2186C26.1831 25.5362 25.1379 24.9802 24.0448 24.5554C25.4989 23.2337 26.4636 21.3821 26.6314 19.3094C28.8366 17.1607 31.7273 15.9827 34.826 15.9827C37.2451 15.9827 39.5678 16.7111 41.5436 18.089C42.2516 18.5828 43.2251 18.4094 43.7188 17.7014C44.2123 16.9937 44.039 16.0199 43.3313 15.5264C42.3532 14.8441 41.3076 14.2883 40.2145 13.8632C41.8191 12.4048 42.828 10.3018 42.828 7.96784C42.828 3.57422 39.2538 0 34.8602 0C30.4669 0 26.8927 3.57422 26.8927 7.96784C26.8927 10.2924 27.8933 12.3877 29.487 13.8455C29.2688 13.9294 29.0518 14.0183 28.8369 14.1129C27.8592 14.5432 26.94 15.0723 26.0852 15.6937C24.9063 12.7649 22.0361 10.6921 18.6905 10.6921C14.2971 10.6921 10.7226 14.2664 10.7226 18.6597C10.7226 20.9778 11.7178 23.0673 13.3029 24.5245C9.0649 26.1124 5.62862 29.5227 4.22969 33.8721C3.76582 35.3143 4.01149 36.8439 4.90382 38.0686C5.79616 39.2929 7.17677 39.9951 8.69167 39.9951H22.2839C23.1466 39.9951 23.8461 39.2957 23.8461 38.4326C23.8461 37.5699 23.1466 36.8704 22.2839 36.8704H8.69167C8.1866 36.8704 7.7264 36.6364 7.42885 36.228C7.1313 35.8197 7.04952 35.3098 7.20393 34.8288C8.74812 30.0278 13.4576 26.6748 18.6563 26.6748C21.0751 26.6748 23.3981 27.4033 25.3738 28.7811C26.0815 29.2749 27.0553 29.1013 27.5491 28.3936C28.0426 27.6859 27.8692 26.712 27.1612 26.2186ZM34.8602 3.1247C37.5308 3.1247 39.7033 5.29724 39.7033 7.96784C39.7033 10.6381 37.5308 12.811 34.8602 12.811C32.1899 12.811 30.0171 10.6381 30.0171 7.96784C30.0171 5.29724 32.1899 3.1247 34.8602 3.1247ZM18.6905 13.8165C21.361 13.8165 23.5336 15.9894 23.5336 18.6597C23.5336 21.3303 21.361 23.5028 18.6905 23.5028C16.0199 23.5028 13.8473 21.3303 13.8473 18.6597C13.8473 15.9894 16.0199 13.8165 18.6905 13.8165Z" fill="#6366F1"/>
</g>
<defs>
<filter id="filter0_d_20005153_1522" x="0" y="0" width="48" height="48" filterUnits="userSpaceOnUse" color-interpolation-filters="sRGB">
<feFlood flood-opacity="0" result="BackgroundImageFix"/>
<feColorMatrix in="SourceAlpha" type="matrix" values="0 0 0 0 0 0 0 0 0 0 0 0 0 0 0 0 0 0 127 0" result="hardAlpha"/>
<feOffset dy="4"/>
<feGaussianBlur stdDeviation="2"/>
<feComposite in2="hardAlpha" operator="out"/>
<feColorMatrix type="matrix" values="0 0 0 0 0 0 0 0 0 0 0 0 0 0 0 0 0 0 0.25 0"/>
<feBlend mode="normal" in2="BackgroundImageFix" result="effect1_dropShadow_20005153_1522"/>
<feBlend mode="normal" in="SourceGraphic" in2="effect1_dropShadow_20005153_1522" result="shape"/>
</filter>
<clipPath id="clip0_20005153_1522">
<rect width="40" height="40" fill="white" transform="translate(4)"/>
</clipPath>
</defs>
</svg>
