<svg width="20" height="20" viewBox="0 0 20 20" fill="none" xmlns="http://www.w3.org/2000/svg">
<path d="M9.99967 1.66675C7.70217 1.66675 5.83301 3.53591 5.83301 5.83342V8.33342H4.99967C4.08051 8.33342 3.33301 9.08091 3.33301 10.0001V16.6667C3.33301 17.5859 4.08051 18.3334 4.99967 18.3334H14.9997C15.9188 18.3334 16.6663 17.5859 16.6663 16.6667V10.0001C16.6663 9.08091 15.9188 8.33342 14.9997 8.33342H14.1663V5.83342C14.1663 3.53591 12.2972 1.66675 9.99967 1.66675ZM14.9997 10.0001L15.0013 16.6667H4.99967V10.0001H14.9997ZM7.49967 8.33342V5.83342C7.49967 4.45508 8.62134 3.33341 9.99967 3.33341C11.378 3.33341 12.4997 4.45508 12.4997 5.83342V8.33342H7.49967Z" fill="white"/>
</svg>
