<svg width="80" height="80" viewBox="0 0 80 80" fill="none" xmlns="http://www.w3.org/2000/svg">
<g filter="url(#filter0_d_20005153_1483)">
<rect x="4" width="72" height="72" rx="8" fill="#F3F6FF" shape-rendering="crispEdges"/>
<path d="M48.0515 45.1406H43.4421C42.5792 45.1406 41.8796 45.8402 41.8796 46.7031C41.8796 47.5661 42.5792 48.2656 43.4421 48.2656H48.0515C48.9145 48.2656 49.614 47.5661 49.614 46.7031C49.614 45.8402 48.9145 45.1406 48.0515 45.1406Z" fill="#6366F1"/>
<path d="M48.0515 35.6875H43.4421C42.5792 35.6875 41.8796 36.387 41.8796 37.25C41.8796 38.113 42.5792 38.8125 43.4421 38.8125H48.0515C48.9145 38.8125 49.614 38.113 49.614 37.25C49.614 36.387 48.9145 35.6875 48.0515 35.6875Z" fill="#6366F1"/>
<path d="M54.2928 43.5C55.1558 43.5 55.8553 42.8005 55.8553 41.9375V22.25C55.8553 18.8038 53.0516 16 49.6053 16H30.3953C26.949 16 24.1453 18.8038 24.1453 22.25V49.75C24.1453 53.1963 26.949 56 30.3953 56H49.6053C53.0516 56 55.8553 53.1963 55.8553 49.75C55.8553 48.887 55.1558 48.1875 54.2928 48.1875C53.4299 48.1875 52.7303 48.887 52.7303 49.75C52.7303 51.4731 51.3285 52.875 49.6053 52.875H30.3953C28.6721 52.875 27.2703 51.4731 27.2703 49.75V22.25C27.2703 20.5269 28.6721 19.125 30.3953 19.125H49.6053C51.3285 19.125 52.7303 20.5269 52.7303 22.25V41.9375C52.7303 42.8005 53.4299 43.5 54.2928 43.5Z" fill="#6366F1"/>
<path d="M39.9844 22.2176C39.3193 21.668 38.3343 21.7616 37.7847 22.4269L34.4093 26.5123L33.0775 25.1446C32.4755 24.5264 31.4862 24.5132 30.8679 25.1152C30.2497 25.7173 30.2365 26.7065 30.8385 27.3248L32.5146 29.0461C32.5285 29.0603 32.5425 29.0742 32.5569 29.0879C33.0634 29.57 33.7394 29.8381 34.4348 29.8381C34.4945 29.838 34.5546 29.836 34.6146 29.8319C35.3681 29.7817 36.0718 29.417 36.5473 28.8308L40.1938 24.4173C40.7435 23.752 40.6497 22.7672 39.9844 22.2176Z" fill="#D946EF"/>
<path d="M39.9842 41.2681C39.319 40.7185 38.3341 40.8122 37.7845 41.4774L34.4081 45.5639L33.0742 44.2016C32.4703 43.585 31.4811 43.5747 30.8645 44.1785C30.248 44.7822 30.2377 45.7715 30.8413 46.3881L32.5174 48.0997C32.5302 48.1128 32.5433 48.1256 32.5566 48.1383C33.0631 48.6204 33.7392 48.8886 34.4345 48.8886C34.4943 48.8885 34.5543 48.8865 34.6143 48.8825C35.3677 48.8323 36.0714 48.4676 36.547 47.8814L40.1935 43.4678C40.7432 42.8025 40.6495 41.8177 39.9842 41.2681Z" fill="#D946EF"/>
<path d="M48.0515 26.0781H43.4421C42.5792 26.0781 41.8796 26.7777 41.8796 27.6406C41.8796 28.5036 42.5792 29.2031 43.4421 29.2031H48.0515C48.9145 29.2031 49.614 28.5036 49.614 27.6406C49.614 26.7777 48.9145 26.0781 48.0515 26.0781Z" fill="#6366F1"/>
<path d="M39.9842 31.8189C39.319 31.2693 38.3341 31.363 37.7845 32.0283L34.4081 36.1147L33.0742 34.7524C32.4703 34.1358 31.4811 34.1255 30.8645 34.7293C30.248 35.333 30.2377 36.3223 30.8413 36.9389L32.5174 38.6505C32.5302 38.6636 32.5433 38.6765 32.5566 38.6891C33.0631 39.1712 33.7392 39.4394 34.4345 39.4394C34.4943 39.4393 34.5543 39.4373 34.6143 39.4333C35.3677 39.3831 36.0714 39.0184 36.547 38.4322L40.1935 34.0187C40.7432 33.3533 40.6495 32.3685 39.9842 31.8189Z" fill="#D946EF"/>
</g>
<defs>
<filter id="filter0_d_20005153_1483" x="0" y="0" width="80" height="80" filterUnits="userSpaceOnUse" color-interpolation-filters="sRGB">
<feFlood flood-opacity="0" result="BackgroundImageFix"/>
<feColorMatrix in="SourceAlpha" type="matrix" values="0 0 0 0 0 0 0 0 0 0 0 0 0 0 0 0 0 0 127 0" result="hardAlpha"/>
<feOffset dy="4"/>
<feGaussianBlur stdDeviation="2"/>
<feComposite in2="hardAlpha" operator="out"/>
<feColorMatrix type="matrix" values="0 0 0 0 0 0 0 0 0 0 0 0 0 0 0 0 0 0 0.25 0"/>
<feBlend mode="normal" in2="BackgroundImageFix" result="effect1_dropShadow_20005153_1483"/>
<feBlend mode="normal" in="SourceGraphic" in2="effect1_dropShadow_20005153_1483" result="shape"/>
</filter>
</defs>
</svg>
