<svg width="80" height="80" viewBox="0 0 80 80" fill="none" xmlns="http://www.w3.org/2000/svg">
<g filter="url(#filter0_d_20005153_1507)">
<rect x="4" width="72" height="72" rx="8" fill="#F3F6FF" shape-rendering="crispEdges"/>
<g clip-path="url(#clip0_20005153_1507)">
<path d="M48.5202 25.6094C48.5184 25.6094 48.5166 25.6094 48.5148 25.6094C48.0984 25.6094 47.6991 25.7756 47.4056 26.0713L38.4411 35.1058L35.0858 31.7002C34.7945 31.4047 34.3977 31.2371 33.9829 31.2344C33.9795 31.2344 33.9762 31.2344 33.9727 31.2344C33.5615 31.2344 33.1667 31.3966 32.8741 31.6859L26.8698 37.6234C26.2563 38.2302 26.2507 39.2195 26.8575 39.833C27.1631 40.1421 27.5656 40.297 27.9686 40.2969C28.3655 40.2969 28.7627 40.1465 29.0672 39.8454L33.9584 35.0085L37.3242 38.4247C37.6173 38.7221 38.017 38.8898 38.4345 38.8905C38.4355 38.8905 38.4363 38.8905 38.4373 38.8905C38.8538 38.8905 39.253 38.7243 39.5464 38.4286L48.507 29.398L50.9141 31.8584C51.5179 32.4752 52.507 32.4859 53.1238 31.8824C53.7406 31.2789 53.7513 30.2897 53.1479 29.6728L49.6316 26.0791C49.3389 25.7801 48.9386 25.6109 48.5202 25.6094Z" fill="#D946EF"/>
<path d="M58.4375 34.9062C59.3005 34.9062 60 34.2067 60 33.3438V20.7656C60 19.9027 59.3005 19.2031 58.4375 19.2031H41.5625V17.5625C41.5625 16.6995 40.863 16 40 16C39.137 16 38.4375 16.6995 38.4375 17.5625V19.2031H21.5625C20.6995 19.2031 20 19.9027 20 20.7656V41.2344C20 44.6806 22.8038 47.4844 26.25 47.4844H38.4375V52.875H33.75C32.887 52.875 32.1875 53.5745 32.1875 54.4375C32.1875 55.3005 32.887 56 33.75 56H46.1719C47.0348 56 47.7344 55.3005 47.7344 54.4375C47.7344 53.5745 47.0348 52.875 46.1719 52.875H41.5625V47.4844H53.75C57.1963 47.4844 60 44.6806 60 41.2344C60 40.3714 59.3005 39.6719 58.4375 39.6719C57.5745 39.6719 56.875 40.3714 56.875 41.2344C56.875 42.9575 55.4731 44.3594 53.75 44.3594H26.25C24.5269 44.3594 23.125 42.9575 23.125 41.2344V22.3281H56.875V33.3438C56.875 34.2067 57.5745 34.9062 58.4375 34.9062Z" fill="#6366F1"/>
</g>
</g>
<defs>
<filter id="filter0_d_20005153_1507" x="0" y="0" width="80" height="80" filterUnits="userSpaceOnUse" color-interpolation-filters="sRGB">
<feFlood flood-opacity="0" result="BackgroundImageFix"/>
<feColorMatrix in="SourceAlpha" type="matrix" values="0 0 0 0 0 0 0 0 0 0 0 0 0 0 0 0 0 0 127 0" result="hardAlpha"/>
<feOffset dy="4"/>
<feGaussianBlur stdDeviation="2"/>
<feComposite in2="hardAlpha" operator="out"/>
<feColorMatrix type="matrix" values="0 0 0 0 0 0 0 0 0 0 0 0 0 0 0 0 0 0 0.25 0"/>
<feBlend mode="normal" in2="BackgroundImageFix" result="effect1_dropShadow_20005153_1507"/>
<feBlend mode="normal" in="SourceGraphic" in2="effect1_dropShadow_20005153_1507" result="shape"/>
</filter>
<clipPath id="clip0_20005153_1507">
<rect width="40" height="40" fill="white" transform="translate(20 16)"/>
</clipPath>
</defs>
</svg>
